# xmcd
#
# Track frame offsets:
#	150
#	16585
#	30160
#	51910
#	78160
#	94360
#	117085
#	132110
#	149110
#	165385
#
# Disc length: 2718 seconds
#
# Revision: 1
# Processed by: cddbd v1.5.2PL0 Copyright (c) Steve Scherf et al.
# Submitted via: audiograbber 1.83.01
#
DISCID=740a9c0a
DTITLE=Perverted - Vote Reverend Greed
DYEAR=2010
DGENRE=
TTITLE0=The Buzz Of The Silent Show
TTITLE1=Planet Fear
TTITLE2=Thousandaire
TTITLE3=Second Chance
TTITLE4=Tenderness
TTITLE5=Jindabyne
TTITLE6=Night On Earth
TTITLE7=Rom
TTITLE8=Lorsqu'Il Devient Rouge
TTITLE9=Brilliant Idea
EXTD=
EXTT0=
EXTT1=
EXTT2=
EXTT3=
EXTT4=
EXTT5=
EXTT6=
EXTT7=
EXTT8=
EXTT9=
PLAYORDER=
